<svg width="214" height="39" viewBox="0 0 214 39" fill="none" xmlns="http://www.w3.org/2000/svg">
<path d="M57.4688 17.2695V29H53.5176V14.207H57.2227L57.4688 17.2695ZM56.9219 21.084H55.8281C55.8281 20.054 55.9512 19.1061 56.1973 18.2402C56.4525 17.3652 56.8216 16.6087 57.3047 15.9707C57.7969 15.3236 58.403 14.8223 59.123 14.4668C59.8431 14.1113 60.6771 13.9336 61.625 13.9336C62.2812 13.9336 62.8828 14.0339 63.4297 14.2344C63.9766 14.4258 64.446 14.7311 64.8379 15.1504C65.2389 15.5605 65.5488 16.0983 65.7676 16.7637C65.9863 17.4199 66.0957 18.2083 66.0957 19.1289V29H62.1582V19.5664C62.1582 18.8919 62.0671 18.3724 61.8848 18.0078C61.7025 17.6432 61.4427 17.388 61.1055 17.2422C60.7773 17.0964 60.3809 17.0234 59.916 17.0234C59.4056 17.0234 58.959 17.1283 58.5762 17.3379C58.2025 17.5475 57.8926 17.8392 57.6465 18.2129C57.4004 18.5775 57.2181 19.0059 57.0996 19.498C56.9811 19.9902 56.9219 20.5189 56.9219 21.084ZM65.7266 20.6328L64.3184 20.8105C64.3184 19.8444 64.4368 18.9466 64.6738 18.1172C64.9199 17.2878 65.2799 16.5586 65.7539 15.9297C66.237 15.3008 66.834 14.8132 67.5449 14.4668C68.2559 14.1113 69.0762 13.9336 70.0059 13.9336C70.7168 13.9336 71.3639 14.0384 71.9473 14.248C72.5306 14.4486 73.0273 14.7721 73.4375 15.2188C73.8568 15.6562 74.1758 16.2305 74.3945 16.9414C74.6224 17.6523 74.7363 18.5228 74.7363 19.5527V29H70.7852V19.5527C70.7852 18.8691 70.694 18.3496 70.5117 17.9941C70.3385 17.6296 70.0833 17.3789 69.7461 17.2422C69.418 17.0964 69.026 17.0234 68.5703 17.0234C68.0964 17.0234 67.6816 17.1191 67.3262 17.3105C66.9707 17.4928 66.6745 17.748 66.4375 18.0762C66.2005 18.4043 66.0228 18.7871 65.9043 19.2246C65.7858 19.653 65.7266 20.1224 65.7266 20.6328Z" fill="#333333"/>
<path d="M78.1562 21.7539V21.4668C78.1562 20.3822 78.3112 19.3841 78.6211 18.4727C78.931 17.5521 79.3822 16.7546 79.9746 16.0801C80.5671 15.4056 81.2962 14.8815 82.1621 14.5078C83.028 14.125 84.0215 13.9336 85.1426 13.9336C86.2637 13.9336 87.2617 14.125 88.1367 14.5078C89.0117 14.8815 89.7454 15.4056 90.3379 16.0801C90.9395 16.7546 91.3952 17.5521 91.7051 18.4727C92.015 19.3841 92.1699 20.3822 92.1699 21.4668V21.7539C92.1699 22.8294 92.015 23.8275 91.7051 24.748C91.3952 25.6595 90.9395 26.457 90.3379 27.1406C89.7454 27.8151 89.0163 28.3392 88.1504 28.7129C87.2845 29.0866 86.291 29.2734 85.1699 29.2734C84.0488 29.2734 83.0508 29.0866 82.1758 28.7129C81.3099 28.3392 80.5762 27.8151 79.9746 27.1406C79.3822 26.457 78.931 25.6595 78.6211 24.748C78.3112 23.8275 78.1562 22.8294 78.1562 21.7539ZM82.0938 21.4668V21.7539C82.0938 22.3737 82.1484 22.9525 82.2578 23.4902C82.3672 24.028 82.5404 24.502 82.7773 24.9121C83.0234 25.3132 83.3424 25.6276 83.7344 25.8555C84.1263 26.0833 84.6048 26.1973 85.1699 26.1973C85.7168 26.1973 86.1862 26.0833 86.5781 25.8555C86.9701 25.6276 87.2845 25.3132 87.5215 24.9121C87.7585 24.502 87.9316 24.028 88.041 23.4902C88.1595 22.9525 88.2188 22.3737 88.2188 21.7539V21.4668C88.2188 20.8652 88.1595 20.3001 88.041 19.7715C87.9316 19.2337 87.7539 18.7598 87.5078 18.3496C87.2708 17.9303 86.9564 17.6022 86.5645 17.3652C86.1725 17.1283 85.6986 17.0098 85.1426 17.0098C84.5866 17.0098 84.1126 17.1283 83.7207 17.3652C83.3379 17.6022 83.0234 17.9303 82.7773 18.3496C82.5404 18.7598 82.3672 19.2337 82.2578 19.7715C82.1484 20.3001 82.0938 20.8652 82.0938 21.4668Z" fill="#333333"/>
<path d="M100.402 26.1289L103.684 14.207H107.799L102.809 29H100.32L100.402 26.1289ZM98.1465 14.207L101.441 26.1426L101.51 29H99.0078L94.0176 14.207H98.1465Z" fill="#333333"/>
<path d="M114.719 14.207V29H110.768V14.207H114.719ZM110.521 10.3516C110.521 9.77734 110.722 9.30339 111.123 8.92969C111.524 8.55599 112.062 8.36914 112.736 8.36914C113.402 8.36914 113.935 8.55599 114.336 8.92969C114.746 9.30339 114.951 9.77734 114.951 10.3516C114.951 10.9258 114.746 11.3997 114.336 11.7734C113.935 12.1471 113.402 12.334 112.736 12.334C112.062 12.334 111.524 12.1471 111.123 11.7734C110.722 11.3997 110.521 10.9258 110.521 10.3516Z" fill="#333333"/>
<path d="M125.781 29.2734C124.633 29.2734 123.603 29.0911 122.691 28.7266C121.78 28.3529 121.005 27.8379 120.367 27.1816C119.738 26.5254 119.255 25.7643 118.918 24.8984C118.581 24.0234 118.412 23.0938 118.412 22.1094V21.5625C118.412 20.4414 118.572 19.416 118.891 18.4863C119.21 17.5566 119.665 16.75 120.258 16.0664C120.859 15.3828 121.589 14.8587 122.445 14.4941C123.302 14.1204 124.268 13.9336 125.344 13.9336C126.392 13.9336 127.322 14.1068 128.133 14.4531C128.944 14.7995 129.623 15.2917 130.17 15.9297C130.726 16.5677 131.145 17.3333 131.428 18.2266C131.71 19.1107 131.852 20.0951 131.852 21.1797V22.8203H120.094V20.1953H127.982V19.8945C127.982 19.3477 127.882 18.86 127.682 18.4316C127.49 17.9941 127.199 17.6478 126.807 17.3926C126.415 17.1374 125.913 17.0098 125.303 17.0098C124.783 17.0098 124.337 17.1237 123.963 17.3516C123.589 17.5794 123.284 17.8984 123.047 18.3086C122.819 18.7188 122.646 19.2018 122.527 19.7578C122.418 20.3047 122.363 20.9062 122.363 21.5625V22.1094C122.363 22.7018 122.445 23.2487 122.609 23.75C122.783 24.2513 123.024 24.6842 123.334 25.0488C123.653 25.4134 124.036 25.696 124.482 25.8965C124.938 26.097 125.453 26.1973 126.027 26.1973C126.738 26.1973 127.399 26.0605 128.01 25.7871C128.63 25.5046 129.163 25.0807 129.609 24.5156L131.523 26.5938C131.214 27.0404 130.79 27.4688 130.252 27.8789C129.723 28.2891 129.085 28.6263 128.338 28.8906C127.59 29.1458 126.738 29.2734 125.781 29.2734Z" fill="#333333"/>
<path d="M143.092 21.9043H138.02V18.7051H143.092C143.876 18.7051 144.514 18.5775 145.006 18.3223C145.498 18.0579 145.858 17.6934 146.086 17.2285C146.314 16.7637 146.428 16.2396 146.428 15.6562C146.428 15.0638 146.314 14.5124 146.086 14.002C145.858 13.4915 145.498 13.0814 145.006 12.7715C144.514 12.4616 143.876 12.3066 143.092 12.3066H139.441V29H135.34V9.09375H143.092C144.65 9.09375 145.986 9.3763 147.098 9.94141C148.219 10.4974 149.076 11.2676 149.668 12.252C150.26 13.2363 150.557 14.362 150.557 15.6289C150.557 16.9141 150.26 18.026 149.668 18.9648C149.076 19.9036 148.219 20.6283 147.098 21.1387C145.986 21.6491 144.65 21.9043 143.092 21.9043Z" fill="#333333"/>
<path d="M153.32 21.7539V21.4668C153.32 20.3822 153.475 19.3841 153.785 18.4727C154.095 17.5521 154.546 16.7546 155.139 16.0801C155.731 15.4056 156.46 14.8815 157.326 14.5078C158.192 14.125 159.186 13.9336 160.307 13.9336C161.428 13.9336 162.426 14.125 163.301 14.5078C164.176 14.8815 164.91 15.4056 165.502 16.0801C166.104 16.7546 166.559 17.5521 166.869 18.4727C167.179 19.3841 167.334 20.3822 167.334 21.4668V21.7539C167.334 22.8294 167.179 23.8275 166.869 24.748C166.559 25.6595 166.104 26.457 165.502 27.1406C164.91 27.8151 164.18 28.3392 163.314 28.7129C162.449 29.0866 161.455 29.2734 160.334 29.2734C159.213 29.2734 158.215 29.0866 157.34 28.7129C156.474 28.3392 155.74 27.8151 155.139 27.1406C154.546 26.457 154.095 25.6595 153.785 24.748C153.475 23.8275 153.32 22.8294 153.32 21.7539ZM157.258 21.4668V21.7539C157.258 22.3737 157.312 22.9525 157.422 23.4902C157.531 24.028 157.704 24.502 157.941 24.9121C158.188 25.3132 158.507 25.6276 158.898 25.8555C159.29 26.0833 159.769 26.1973 160.334 26.1973C160.881 26.1973 161.35 26.0833 161.742 25.8555C162.134 25.6276 162.449 25.3132 162.686 24.9121C162.923 24.502 163.096 24.028 163.205 23.4902C163.324 22.9525 163.383 22.3737 163.383 21.7539V21.4668C163.383 20.8652 163.324 20.3001 163.205 19.7715C163.096 19.2337 162.918 18.7598 162.672 18.3496C162.435 17.9303 162.12 17.6022 161.729 17.3652C161.337 17.1283 160.863 17.0098 160.307 17.0098C159.751 17.0098 159.277 17.1283 158.885 17.3652C158.502 17.6022 158.188 17.9303 157.941 18.3496C157.704 18.7598 157.531 19.2337 157.422 19.7715C157.312 20.3001 157.258 20.8652 157.258 21.4668Z" fill="#333333"/>
<path d="M174.691 17.4336V29H170.754V14.207H174.459L174.691 17.4336ZM179.148 14.1113L179.08 17.7617C178.889 17.7344 178.656 17.7116 178.383 17.6934C178.118 17.666 177.877 17.6523 177.658 17.6523C177.102 17.6523 176.619 17.7253 176.209 17.8711C175.808 18.0078 175.471 18.2129 175.197 18.4863C174.933 18.7598 174.732 19.0924 174.596 19.4844C174.468 19.8763 174.395 20.3229 174.377 20.8242L173.584 20.5781C173.584 19.6211 173.68 18.7415 173.871 17.9395C174.062 17.1283 174.34 16.4219 174.705 15.8203C175.079 15.2188 175.535 14.7539 176.072 14.4258C176.61 14.0977 177.225 13.9336 177.918 13.9336C178.137 13.9336 178.36 13.9518 178.588 13.9883C178.816 14.0156 179.003 14.0566 179.148 14.1113Z" fill="#333333"/>
<path d="M189.938 14.207V16.9961H181.324V14.207H189.938ZM183.457 10.5566H187.395V24.543C187.395 24.9714 187.449 25.2995 187.559 25.5273C187.677 25.7552 187.85 25.9147 188.078 26.0059C188.306 26.0879 188.593 26.1289 188.939 26.1289C189.186 26.1289 189.404 26.1198 189.596 26.1016C189.796 26.0742 189.965 26.0469 190.102 26.0195L190.115 28.918C189.778 29.0273 189.413 29.1139 189.021 29.1777C188.63 29.2415 188.197 29.2734 187.723 29.2734C186.857 29.2734 186.1 29.1322 185.453 28.8496C184.815 28.5579 184.323 28.0931 183.977 27.4551C183.63 26.8171 183.457 25.9785 183.457 24.9395V10.5566Z" fill="#333333"/>
<path d="M201.164 25.6641V19.0742C201.164 18.6003 201.087 18.1947 200.932 17.8574C200.777 17.5111 200.535 17.2422 200.207 17.0508C199.888 16.8594 199.473 16.7637 198.963 16.7637C198.525 16.7637 198.147 16.8411 197.828 16.9961C197.509 17.1419 197.263 17.3561 197.09 17.6387C196.917 17.9121 196.83 18.2357 196.83 18.6094H192.893C192.893 17.9805 193.038 17.3835 193.33 16.8184C193.622 16.2533 194.046 15.7565 194.602 15.3281C195.158 14.8906 195.818 14.5488 196.584 14.3027C197.359 14.0566 198.225 13.9336 199.182 13.9336C200.33 13.9336 201.351 14.125 202.244 14.5078C203.137 14.8906 203.839 15.4648 204.35 16.2305C204.869 16.9961 205.129 17.9531 205.129 19.1016V25.4316C205.129 26.2428 205.179 26.9082 205.279 27.4277C205.38 27.9382 205.525 28.3848 205.717 28.7676V29H201.738C201.547 28.599 201.401 28.0977 201.301 27.4961C201.21 26.8854 201.164 26.2747 201.164 25.6641ZM201.684 19.9902L201.711 22.2188H199.51C198.99 22.2188 198.539 22.278 198.156 22.3965C197.773 22.515 197.459 22.6836 197.213 22.9023C196.967 23.112 196.785 23.3581 196.666 23.6406C196.557 23.9232 196.502 24.2331 196.502 24.5703C196.502 24.9076 196.579 25.2129 196.734 25.4863C196.889 25.7507 197.113 25.9603 197.404 26.1152C197.696 26.2611 198.038 26.334 198.43 26.334C199.022 26.334 199.537 26.2155 199.975 25.9785C200.412 25.7415 200.749 25.4499 200.986 25.1035C201.232 24.7572 201.36 24.429 201.369 24.1191L202.408 25.7871C202.262 26.1608 202.062 26.5482 201.807 26.9492C201.561 27.3503 201.246 27.7285 200.863 28.084C200.48 28.4303 200.02 28.7174 199.482 28.9453C198.945 29.1641 198.307 29.2734 197.568 29.2734C196.63 29.2734 195.777 29.0866 195.012 28.7129C194.255 28.3301 193.654 27.806 193.207 27.1406C192.77 26.4661 192.551 25.7005 192.551 24.8438C192.551 24.069 192.697 23.3809 192.988 22.7793C193.28 22.1777 193.708 21.6719 194.273 21.2617C194.848 20.8424 195.563 20.528 196.42 20.3184C197.277 20.0996 198.27 19.9902 199.4 19.9902H201.684Z" fill="#333333"/>
<path d="M213.32 8V29H209.369V8H213.32Z" fill="#333333"/>
<path d="M33.7015 13.2645L37.7731 11.9405C36.8278 9.63116 35.4216 7.52551 33.6351 5.74428C31.8487 3.96306 29.7172 2.5413 27.3629 1.56055L25.8862 5.48224C29.4142 7.02234 32.2075 9.80385 33.7015 13.2645Z" fill="#5823F5"/>
<path d="M22.2163 33.616L22.6458 37.7813C27.7586 36.997 32.3439 34.2838 35.4011 30.2336L31.7913 27.9648C29.4478 30.9508 26.0282 32.9691 22.2163 33.616Z" fill="#5823F5"/>
<path d="M19.9679 33.8366C18.0525 33.8886 16.1444 33.5859 14.346 32.9447C12.5417 32.311 10.8782 31.3501 9.4444 30.1133L6.36328 33.0247C8.25073 34.7077 10.4641 36.0104 12.875 36.8571C15.2811 37.7149 17.8391 38.1007 20.4002 37.9921L19.9784 33.8405L19.9679 33.8366Z" fill="#5823F5"/>
<path d="M38.4919 14.0264L34.4203 15.3503C35.1838 18.2414 35.0267 21.2889 33.9697 24.0918C33.709 24.7926 33.3891 25.4714 33.0132 26.1213L36.6334 28.3959C37.1734 27.4768 37.6319 26.5151 38.0041 25.5209C39.4029 21.8332 39.5735 17.813 38.4919 14.0264Z" fill="#5823F5"/>
<path d="M4.314 18.2405L0.0470147 17.7217C-0.130795 20.2004 0.196854 22.6888 1.01124 25.0447C1.82562 27.4006 3.11078 29.5778 4.79327 31.4519L7.87399 28.5408C5.39381 25.6636 4.12272 21.9859 4.314 18.2405Z" fill="#5823F5"/>
<path d="M5.21833 13.9204C6.27101 11.1163 8.17454 8.6869 10.6784 6.9519L8.43292 3.39258C5.09767 5.61913 2.5627 8.79992 1.18188 12.4909C0.80622 13.4838 0.518158 14.5058 0.320801 15.5459L4.59992 16.0687C4.74467 15.3373 4.95151 14.6187 5.21833 13.9204Z" fill="#5823F5"/>
<path d="M23.7633 4.73246L25.2395 0.810289C22.7854 0.0905595 20.2091 -0.153179 17.6579 0.0929978C15.1066 0.339175 12.6303 1.07044 10.3706 2.24502L12.6125 5.81419C16.0526 4.09239 20.0397 3.7056 23.7633 4.73246Z" fill="#5823F5"/>
<path d="M31.1207 24.9154C31.2339 24.7103 31.3362 24.5016 31.4442 24.2828C31.5959 23.9749 31.7273 23.6596 31.8487 23.3416C31.9259 23.1357 31.9931 22.9259 32.0562 22.7267C32.1194 22.558 32.1721 22.3858 32.2139 22.211C32.3635 21.6511 32.4732 21.0819 32.5423 20.5074C32.5862 20.2267 32.6123 19.9437 32.6204 19.6599C32.6313 19.4074 32.6426 19.1544 32.639 18.9081C32.6333 18.7313 32.6345 18.5685 32.6143 18.3983C32.596 17.875 32.5346 17.354 32.4307 16.8402C32.3921 16.5739 32.3389 16.3097 32.2713 16.0488L28.1864 17.3795C28.2074 17.5151 28.2325 17.6406 28.2426 17.7716C28.2701 17.9047 28.2877 18.0396 28.2952 18.1752C28.3194 18.314 28.3309 18.4547 28.3295 18.5956C28.3506 18.9628 28.3446 19.3311 28.3117 19.6976C28.2964 19.867 28.2806 20.0364 28.2543 20.2023C28.2309 20.3939 28.1955 20.5839 28.1483 20.7713C28.1141 20.9598 28.0681 21.146 28.0104 21.329C27.9477 21.5286 27.8891 21.7176 27.8147 21.9133C27.7209 22.168 27.6111 22.4168 27.4858 22.6584L31.1166 24.933L31.1207 24.9154Z" fill="#B590F9"/>
<path d="M24.7958 30.598C25.3338 30.3696 25.8551 30.1058 26.3561 29.8085C26.5705 29.6861 26.7744 29.5598 26.9822 29.4237C27.4177 29.1333 27.8341 28.817 28.2292 28.4765C28.5479 28.2043 28.8456 27.9247 29.1408 27.6207C29.3988 27.3501 29.65 27.0657 29.8801 26.7739L26.2599 24.499C26.1422 24.6206 26.0346 24.7461 25.9169 24.8677C25.8397 24.9462 25.766 25.0124 25.6965 25.0697C25.5607 25.2064 25.416 25.3346 25.2633 25.4533C25.0874 25.6008 24.9155 25.7384 24.7327 25.8718C24.7222 25.8683 24.7222 25.8683 24.7181 25.8785C24.5252 26.0083 24.3355 26.1283 24.1357 26.244C23.3437 26.7144 22.4791 27.0587 21.5747 27.2638L21.9937 31.4264C22.3817 31.3537 22.7631 31.267 23.1379 31.1663C23.7008 31.0063 24.2542 30.8165 24.7958 30.598Z" fill="#B590F9"/>
<path d="M31.5441 13.9486C31.3823 13.6117 31.2206 13.2744 31.0406 12.954C30.8781 12.6547 30.6979 12.3649 30.5006 12.086C30.4781 12.0471 30.4517 12.0104 30.4218 11.9766C29.9954 11.3519 29.5109 10.7665 28.9742 10.2277C28.5669 9.81303 28.1288 9.42789 27.6634 9.07532C27.5125 8.95276 27.3546 8.83844 27.1906 8.73291C27.0332 8.6157 26.8693 8.50703 26.6996 8.40738C26.5236 8.2861 26.3406 8.17465 26.1516 8.07359C25.8148 7.88006 25.4665 7.70613 25.1085 7.55273L23.627 11.4855C23.8192 11.5764 24.0061 11.6776 24.1867 11.7887C24.2283 11.8095 24.2671 11.835 24.3024 11.8648C24.4888 11.9773 24.6603 12.0966 24.8322 12.2154C25.3962 12.6224 25.905 13.0969 26.3465 13.6274C26.4922 13.7882 26.6248 13.9599 26.7429 14.1408C27.0132 14.5037 27.2508 14.8884 27.4531 15.2908L31.5498 13.9635L31.5511 13.9592L31.5504 13.9548L31.548 13.9511L31.5441 13.9486Z" fill="#B590F9"/>
<path d="M11.3099 21.7083C11.2338 21.4949 11.1683 21.2851 11.1076 21.065C11.1117 21.0545 11.1117 21.0545 11.1012 21.0509C11.0502 20.8344 11.0098 20.6218 10.9734 20.3991C10.9352 20.2129 10.9097 20.0245 10.8969 19.8351C10.879 19.74 10.871 19.6434 10.8731 19.5468C10.8531 19.3808 10.8437 19.2138 10.8447 19.0467L6.56968 18.5137L6.56563 18.5243C6.50876 19.7605 6.64762 20.998 6.97736 22.1935C7.01579 22.3468 7.05826 22.4904 7.10072 22.6335C7.14319 22.7767 7.18889 22.91 7.23541 23.043C7.36402 23.4036 7.50747 23.7578 7.66574 24.1055C7.82139 24.4515 7.99527 24.7895 8.18668 25.1182C8.37142 25.4527 8.57392 25.7776 8.79336 26.0917L8.79255 26.096L8.79359 26.1002L8.79631 26.1037L8.80023 26.1058C9.01985 26.4169 9.25807 26.711 9.4963 27.0056L12.5916 24.0875C12.4779 23.942 12.3744 23.8008 12.2753 23.6486C11.8648 23.0469 11.5401 22.3943 11.3099 21.7083Z" fill="#B590F9"/>
<path d="M11.3308 9.22192C11.2139 9.3086 11.1035 9.40979 10.9825 9.50706C10.6496 9.78833 10.3353 10.0896 10.0414 10.4092C9.91297 10.5259 9.79335 10.6513 9.68342 10.7845C9.51719 10.9704 9.35743 11.1709 9.19807 11.3709C8.99975 11.6146 8.8157 11.8689 8.6468 12.1326C8.47855 12.3879 8.30625 12.6538 8.15903 12.917C7.98593 13.2174 7.83021 13.5355 7.68097 13.8677C7.55963 14.1282 7.44355 14.4023 7.34285 14.6698C7.2385 14.9479 7.14426 15.2299 7.06499 15.5049C6.98571 15.7798 6.90604 16.054 6.85144 16.3285L6.84375 16.3493L11.1334 16.8756L11.137 16.8651C11.2012 16.6049 11.2823 16.3489 11.3797 16.0987C11.4533 15.9026 11.5334 15.7214 11.6175 15.5296C11.6935 15.3568 11.7809 15.189 11.8792 15.0271C11.9661 14.8593 12.06 14.7059 12.1538 14.5526C12.1585 14.5373 12.1677 14.5237 12.1801 14.5133C12.2767 14.3544 12.3825 14.2009 12.4972 14.0537C12.791 13.6504 13.1252 13.2764 13.495 12.937C13.5908 12.8425 13.6972 12.7515 13.8036 12.6625C13.8986 12.5718 13.9989 12.4865 14.1041 12.4071L11.8525 8.82227C11.6802 8.96072 11.5014 9.08426 11.3308 9.22192Z" fill="#B590F9"/>
<path d="M21.8404 6.54763C21.6287 6.50713 21.4148 6.47832 21.1998 6.46134C21.0038 6.43147 20.8062 6.41222 20.608 6.40368C20.4123 6.38093 20.223 6.3723 20.0337 6.36446C19.4183 6.34413 18.8021 6.36787 18.1902 6.43545C17.8127 6.47703 17.4428 6.53272 17.0804 6.60254L17.0699 6.599C16.703 6.67745 16.3358 6.75903 15.9823 6.86728C15.9362 6.87128 15.8912 6.88295 15.8492 6.9018C15.5132 6.99195 15.1829 7.10104 14.8599 7.22851C14.6901 7.29676 14.5093 7.36108 14.3342 7.43953C14.1639 7.50777 13.9863 7.59641 13.8124 7.67485L13.808 7.6742L13.8037 7.67524L13.8001 7.67782L13.7979 7.68152L16.0462 11.2656C16.2598 11.1777 16.4733 11.0899 16.6828 11.0126C16.9032 10.9389 17.1196 10.8753 17.3465 10.8165C17.5338 10.7663 17.7174 10.7259 17.901 10.6859C18.624 10.5503 19.3615 10.5018 20.0968 10.5416C20.2861 10.5502 20.4823 10.5729 20.6784 10.5953C20.7598 10.5994 20.8409 10.6086 20.9211 10.6228C21.1128 10.6561 21.3158 10.6926 21.5039 10.7361L22.9842 6.80296C22.6085 6.69598 22.2265 6.61072 21.8404 6.54763Z" fill="#B590F9"/>
<path d="M11.9873 29.274C12.149 29.3894 12.3027 29.4905 12.4678 29.5957C12.6223 29.6969 12.7804 29.7878 12.9385 29.8788C13.6326 30.2796 14.3638 30.6166 15.1226 30.8853C15.8815 31.1536 16.6645 31.3525 17.4615 31.4795C17.6431 31.5089 17.8256 31.5379 18.01 31.5579C18.2061 31.5803 18.3914 31.5995 18.5912 31.6116C18.7832 31.6321 18.9763 31.6421 19.1696 31.6415C19.3588 31.6501 19.5522 31.6485 19.7451 31.6469L19.3261 27.4851C18.8377 27.4672 18.3516 27.4121 17.8721 27.3204C17.6706 27.2842 17.4715 27.2371 17.2755 27.1792C17.045 27.1212 16.8182 27.0527 16.5952 26.9737C16.3722 26.8947 16.1531 26.8054 15.938 26.7058C15.7453 26.6266 15.5575 26.5368 15.3754 26.4368C14.9521 26.2073 14.5474 25.9471 14.1648 25.6582L11.0801 28.5798C11.2265 28.7018 11.3733 28.8238 11.525 28.9352C11.6724 29.0565 11.8267 29.1696 11.9873 29.274Z" fill="#B590F9"/>
</svg>
